HIERARCHY
ROOT hips
{
  OFFSET 0 10.074487846421558 1.314567655973056
  CHANNELS 6 Xposition Yposition Zposition Yrotation Xrotation Zrotation
  JOINT spine
  {
    OFFSET -7.042773748992335e-31 0.5690686926897363 0
    CHANNELS 3 Yrotation Xrotation Zrotation
    JOINT chest
    {
      OFFSET 0 1.2435964857087873 0
      CHANNELS 3 Yrotation Xrotation Zrotation
      JOINT upperChest
      {
        OFFSET 0 1.194994586872362 0
        CHANNELS 3 Yrotation Xrotation Zrotation
        JOINT neck
        {
          OFFSET 0 1.515103653293861 0
          CHANNELS 3 Yrotation Xrotation Zrotation
          JOINT head
          {
            OFFSET 0 0.8111851616465653 0
            CHANNELS 3 Yrotation Xrotation Zrotation
            JOINT leftEye
            {
              OFFSET 0.27141371691966987 0.7490044407698551 0.18219031050045686
              CHANNELS 3 Yrotation Xrotation Zrotation
              End Site
              {
                OFFSET 0.27141371691966987 0.7490044407698551 0.18219031050045686
              }
            }
            JOINT rightEye
            {
              OFFSET -0.2714136877644943 0.7490044019380786 0.18219040411850668
              CHANNELS 3 Yrotation Xrotation Zrotation
              End Site
              {
                OFFSET -0.2714136877644943 0.7490044019380786 0.18219040411850668
              }
            }
          }
        }
        JOINT leftShoulder
        {
          OFFSET 0.4137993136083964 1.1593397335613034 0
          CHANNELS 3 Yrotation Xrotation Zrotation
          JOINT leftUpperArm
          {
            OFFSET 1.0096991868951026 0 0
            CHANNELS 3 Yrotation Xrotation Zrotation
            JOINT leftLowerArm
            {
              OFFSET 2.418380967671622 0 0
              CHANNELS 3 Yrotation Xrotation Zrotation
              JOINT leftHand
              {
                OFFSET 2.361538296260114 0 0
                CHANNELS 3 Yrotation Xrotation Zrotation
                JOINT leftIndexProximal
                {
                  OFFSET 0.7243699271447109 0.08118285989887508 0.2022042461579805
                  CHANNELS 3 Yrotation Xrotation Zrotation
                  JOINT leftIndexIntermediate
                  {
                    OFFSET 0.36553107045252053 -0.010567764853200323 -0.014102670024158437
                    CHANNELS 3 Yrotation Xrotation Zrotation
                    JOINT leftIndexDistal
                    {
                      OFFSET 0.22505120770060527 -0.007821041598631284 -0.007511611613336286
                      CHANNELS 3 Yrotation Xrotation Zrotation
                      End Site
                      {
                        OFFSET 0.22505120770060527 -0.007821041598631284 -0.007511611613336286
                      }
                    }
                  }
                }
                JOINT leftLittleProximal
                {
                  OFFSET 0.6721063881632002 0.08118279568569564 -0.3209324945517917
                  CHANNELS 3 Yrotation Xrotation Zrotation
                  JOINT leftLittleIntermediate
                  {
                    OFFSET 0.34587329423120616 5.3042709780015684e-8 -5.929537746918179e-8
                    CHANNELS 3 Yrotation Xrotation Zrotation
                    JOINT leftLittleDistal
                    {
                      OFFSET 0.1992782500022232 0.0030983716482184676 0.0038310952896712935
                      CHANNELS 3 Yrotation Xrotation Zrotation
                      End Site
                      {
                        OFFSET 0.1992782500022232 0.0030983716482184676 0.0038310952896712935
                      }
                    }
                  }
                }
                JOINT leftMiddleProximal
                {
                  OFFSET 0.7301229696860206 0.08118412848995638 0.022516891543707507
                  CHANNELS 3 Yrotation Xrotation Zrotation
                  JOINT leftMiddleIntermediate
                  {
                    OFFSET 0.4076277831942017 -0.000001240188283180288 -1.6203245635504349e-7
                    CHANNELS 3 Yrotation Xrotation Zrotation
                    JOINT leftMiddleDistal
                    {
                      OFFSET 0.2514739255593972 0.0000013850839168938478 -1.8644847207816007e-8
                      CHANNELS 3 Yrotation Xrotation Zrotation
                      End Site
                      {
                        OFFSET 0.2514739255593972 0.0000013850839168938478 -1.8644847207816007e-8
                      }
                    }
                  }
                }
                JOINT leftRingProximal
                {
                  OFFSET 0.7218060861525873 0.08118280646416753 -0.1494689818508163
                  CHANNELS 3 Yrotation Xrotation Zrotation
                  JOINT leftRingIntermediate
                  {
                    OFFSET 0.3781267508900358 0.000001373626195677602 -1.4143108284514483e-7
                    CHANNELS 3 Yrotation Xrotation Zrotation
                    JOINT leftRingDistal
                    {
                      OFFSET 0.21814333268795483 -0.0027137626495670197 -0.004991775417842292
                      CHANNELS 3 Yrotation Xrotation Zrotation
                      End Site
                      {
                        OFFSET 0.21814333268795483 -0.0027137626495670197 -0.004991775417842292
                      }
                    }
                  }
                }
                JOINT leftThumbProximal
                {
                  OFFSET 0.10743676110519984 -0.16423092885053192 -0.07708859146227388
                  CHANNELS 3 Yrotation Xrotation Zrotation
                  JOINT leftThumbIntermediate
                  {
                    OFFSET 0.40350402100066307 -0.01735099334274981 0.315629965828783
                    CHANNELS 3 Yrotation Xrotation Zrotation
                    JOINT leftThumbDistal
                    {
                      OFFSET 0.2320014489535681 -0.01842351809041043 0.21271298411519196
                      CHANNELS 3 Yrotation Xrotation Zrotation
                      End Site
                      {
                        OFFSET 0.2320014489535681 -0.01842351809041043 0.21271298411519196
                      }
                    }
                  }
                }
              }
            }
          }
        }
        JOINT rightShoulder
        {
          OFFSET -0.41379931360839656 1.1593397335613034 0
          CHANNELS 3 Yrotation Xrotation Zrotation
          JOINT rightUpperArm
          {
            OFFSET -1.0096991868951024 0 0
            CHANNELS 3 Yrotation Xrotation Zrotation
            JOINT rightLowerArm
            {
              OFFSET -2.4183809676716232 0 0
              CHANNELS 3 Yrotation Xrotation Zrotation
              JOINT rightHand
              {
                OFFSET -2.3615382962601132 0 0
                CHANNELS 3 Yrotation Xrotation Zrotation
                JOINT rightIndexProximal
                {
                  OFFSET -0.7243699271447109 0.08118285989887508 0.2022042461579805
                  CHANNELS 3 Yrotation Xrotation Zrotation
                  JOINT rightIndexIntermediate
                  {
                    OFFSET -0.36553107045252053 -0.010567764853200323 -0.014102670024158437
                    CHANNELS 3 Yrotation Xrotation Zrotation
                    JOINT rightIndexDistal
                    {
                      OFFSET -0.22505120770060527 -0.007821041598631284 -0.007511611613336286
                      CHANNELS 3 Yrotation Xrotation Zrotation
                      End Site
                      {
                        OFFSET -0.22505120770060527 -0.007821041598631284 -0.007511611613336286
                      }
                    }
                  }
                }
                JOINT rightLittleProximal
                {
                  OFFSET -0.6721063881632002 0.08118279568569564 -0.3209324945517917
                  CHANNELS 3 Yrotation Xrotation Zrotation
                  JOINT rightLittleIntermediate
                  {
                    OFFSET -0.34587329423120616 5.3042709780015684e-8 -5.929537746918179e-8
                    CHANNELS 3 Yrotation Xrotation Zrotation
                    JOINT rightLittleDistal
                    {
                      OFFSET -0.1992782500022232 0.0030983716482184676 0.0038310952896712935
                      CHANNELS 3 Yrotation Xrotation Zrotation
                      End Site
                      {
                        OFFSET -0.1992782500022232 0.0030983716482184676 0.0038310952896712935
                      }
                    }
                  }
                }
                JOINT rightMiddleProximal
                {
                  OFFSET -0.7301229696860206 0.08118412848995638 0.022516891543707507
                  CHANNELS 3 Yrotation Xrotation Zrotation
                  JOINT rightMiddleIntermediate
                  {
                    OFFSET -0.4076277831942017 -0.000001240188283180288 -1.6203245635504349e-7
                    CHANNELS 3 Yrotation Xrotation Zrotation
                    JOINT rightMiddleDistal
                    {
                      OFFSET -0.2514739255593972 0.0000013850839168938478 -1.8644847207816007e-8
                      CHANNELS 3 Yrotation Xrotation Zrotation
                      End Site
                      {
                        OFFSET -0.2514739255593972 0.0000013850839168938478 -1.8644847207816007e-8
                      }
                    }
                  }
                }
                JOINT rightRingProximal
                {
                  OFFSET -0.7218060861525873 0.08118280646416753 -0.1494689818508163
                  CHANNELS 3 Yrotation Xrotation Zrotation
                  JOINT rightRingIntermediate
                  {
                    OFFSET -0.3781267508900358 0.000001373626195677602 -1.4143108284514483e-7
                    CHANNELS 3 Yrotation Xrotation Zrotation
                    JOINT rightRingDistal
                    {
                      OFFSET -0.21814333268795483 -0.0027137626495670197 -0.004991775417842292
                      CHANNELS 3 Yrotation Xrotation Zrotation
                      End Site
                      {
                        OFFSET -0.21814333268795483 -0.0027137626495670197 -0.004991775417842292
                      }
                    }
                  }
                }
                JOINT rightThumbProximal
                {
                  OFFSET -0.10743676110519984 -0.16423092885053192 -0.07708859146227388
                  CHANNELS 3 Yrotation Xrotation Zrotation
                  JOINT rightThumbIntermediate
                  {
                    OFFSET -0.40350402100066307 -0.01735099334274981 0.315629965828783
                    CHANNELS 3 Yrotation Xrotation Zrotation
                    JOINT rightThumbDistal
                    {
                      OFFSET -0.2320014489535681 -0.01842351809041043 0.21271298411519196
                      CHANNELS 3 Yrotation Xrotation Zrotation
                      End Site
                      {
                        OFFSET -0.2320014489535681 -0.01842351809041043 0.21271298411519196
                      }
                    }
                  }
                }
              }
            }
          }
        }
      }
    }
  }
  JOINT leftUpperLeg
  {
    OFFSET 0.8487163290887698 -0.43932186100277326 0
    CHANNELS 3 Yrotation Xrotation Zrotation
    JOINT leftLowerLeg
    {
      OFFSET 0 -3.882816707004296 0
      CHANNELS 3 Yrotation Xrotation Zrotation
      JOINT leftFoot
      {
        OFFSET 0 -4.570431027442807 0.004629272230691511
        CHANNELS 3 Yrotation Xrotation Zrotation
        JOINT leftToes
        {
          OFFSET 0 -0.698875637876343 1.214565366696912
          CHANNELS 3 Yrotation Xrotation Zrotation
          End Site
          {
            OFFSET 0 -0.698875637876343 1.214565366696912
          }
        }
      }
    }
  }
  JOINT rightUpperLeg
  {
    OFFSET -0.8487163290887698 -0.43932186100277326 0
    CHANNELS 3 Yrotation Xrotation Zrotation
    JOINT rightLowerLeg
    {
      OFFSET 0 -3.882816707004296 0
      CHANNELS 3 Yrotation Xrotation Zrotation
      JOINT rightFoot
      {
        OFFSET 0 -4.570431027442807 0.004629272230691511
        CHANNELS 3 Yrotation Xrotation Zrotation
        JOINT rightToes
        {
          OFFSET 0 -0.698875637876343 1.214565366696912
          CHANNELS 3 Yrotation Xrotation Zrotation
          End Site
          {
            OFFSET 0 -0.698875637876343 1.214565366696912
          }
        }
      }
    }
  }
}
MOTION
Frames: 4
Frame Time: 0.03333333333333333
0.6319391131401062 -0.4716941528790777 1.6433191299438477 28.591592161785698 -0.5571190283531591 -3.5974700703951257 2.0140578630726416 6.194200513532366 1.5008665190106694 2.131340614426467 6.593743873850957 1.395589316726705 0 0 0 -5.8340163330307115 3.3735945949997905 0.2810780001326187 -32.633819286316175 -6.023288453203896 13.598523200065172 0 0 0 0 0 0 1.9237886412092258 0.36542159999754437 -3.5007026389951426 2.5890130573497507 -3.404348369573722 -68.92218838810736 -23.680592149082308 -2.9638917049205133 0.931498720705042 3.9469059929692363 27.686495389104767 0.8345937534018827 5.750805685567157 2.0327267720304616 -16.20183952058546 1.7967663405079304 0.2676059170004065 -16.942199265661852 0.8454479670359589 0.058232855527532046 -7.8821141651807345 6.6826904609522595 4.993312259066566 -61.14156211258054 -1.2976403790938857 0.6621274059967253 -27.12807189387499 1.2702310186496795 0.13226066094175154 -11.88969401280242 4.525141888152903 2.0108422424100145 -34.20524293164314 1.5688247630196643 0.20292251633860112 -14.740927478253141 1.0706530645055445 0.09367869421585996 -10.000754752092949 4.6733782589220825 2.218070947605588 -40.40356979190499 2.0958102637839082 0.367096844841032 -19.869977127254476 1.5306768264574702 0.19301940328608896 -14.374650292095385 7.312595187227545 -3.409853627802015 11.404385686799273 28.513981006962286 14.260448448259366 0.705877944025945 9.949596198193554 4.235129125822053 -1.1966793874170056 22.440984655759227 2.2043613006459597 -1.4458709485736536 -2.2630457169474743 2.8086077595025296 64.8970179458142 44.139099721030526 -5.028685685267977 -2.638349192245056 50.894687414248025 38.998527301261184 24.96390495309032 3.6266326483407565 0.4517580882581933 -14.375481407512781 -0.9182176797612925 0.06800632856378633 8.471655351469678 -0.5400290093809232 0.023439388946174984 4.970604087594684 -6.0401367852198735 4.08227893894438 78.06124113709038 -6.204637756566957 5.539275490841746 83.503442589727 -4.173516764825993 1.6023839575964944 41.99302800524536 -6.032724548055475 4.8227641211568075 66.33936220668522 -6.239145432177074 5.977765976194254 87.54428356171945 -3.317691369262366 0.9676823188223115 32.21115131482435 -6.207824676810992 6.227667230720006 86.5084694951229 -6.244537698702725 6.310476887607751 90.60290256979805 -3.8643625747672394 1.3571387464458562 38.38633410470532 -19.961009064913807 -2.384117452848166 -8.025439982345342 -14.233003382900831 11.20647663752688 0.43849312008150004 -32.05920740188181 13.160188704435184 -7.99217835436537 7.194196821660487 -9.886342627788727 2.699486937209311 -11.617399575560503 33.38123693466978 -1.7363274547119245 -6.97968374716428 -23.155994642415887 3.078513493700842 -2.1241105553386305e-9 -0.5975788017061123 -8.537487093473351e-7 -5.917553616502003 -28.784202367448035 -9.627531480132802 -10.867498589263732 18.287627598504674 -3.1947237955861825 -4.52151009358198 23.061466684695265 8.435905492387336 0.000003076766582638694 1.693712880125627 0.000002479945524023701
0.6416946649551392 -0.4463798218243902 1.5885121822357178 27.947872738497214 -0.6176275482005319 -3.919384075913369 1.8602683975798688 6.141662510954818 1.2442856742209436 1.9667260754407598 6.534712879383161 1.1315085039295367 0 0 0 -6.19481204407219 3.1254275000269605 0.2590548868403975 -34.40123868154724 -6.00818312306774 13.7648435030319 0 0 0 0 0 0 1.7449534495897479 0.3657629029605936 -3.3436383648887658 2.3296793784676466 -3.1351808352567874 -68.38701441336264 -24.155305888578635 -3.0183480760822503 0.9624074585918593 4.301675915825609 27.501073333080004 0.7787756218894236 5.739452345727595 2.0257425791657577 -16.173947086295346 1.8015375135469114 0.269039952286345 -16.988506198806462 0.8445619645949498 0.0581234924031537 -7.873906408055829 6.69633854461697 5.022628781562313 -61.049114988886814 -1.2955752519870467 0.6631862094918799 -27.149618307059356 1.269686536436652 0.1321373970434658 -11.884506979575926 4.562881044282374 2.0440062827968792 -34.1633553156629 1.5689520219044717 0.20294618202529938 -14.742119481995244 1.0695300571167161 0.09347334803985567 -9.990187736908057 4.7096225856358105 2.2578801209938844 -40.34099861305905 2.0971401742723392 0.36757955703701484 -19.883078672055877 1.5302882221831446 0.1929224460664808 -14.370973468741303 7.3487777354443065 -3.3767757240003955 11.435711791358589 28.504094686037842 14.25602980558306 0.7044982444889923 9.944222160106545 4.23290281144357 -1.1960699965943935 21.31756802225645 2.1056554365016558 -1.4358499459858023 -1.1779962215530808 2.4030640664283256 65.943540146889 40.0134372034854 -4.664341621682879 -2.2367133687914635 49.32871867578634 39.239505083645916 25.178568104294953 3.6488499423068648 0.46554900225115287 -14.589153575642541 -0.916452823887304 0.06774140508350932 8.455243959212957 -0.5400226063623041 0.02344265563116128 4.970605363439073 -6.040225793691188 4.0279920071244115 78.20580467583946 -6.201315482781876 5.510781179042775 83.2398141976848 -4.1545050763776485 1.5853307016115918 41.758839821552804 -6.031679651564988 4.813389430476659 66.04650259117652 -6.238776031843361 5.969412116262995 87.46726415071032 -3.314544817498247 0.9658840155258426 32.177991522798905 -6.2079622533131165 6.191004546116381 86.2127218642039 -6.244650626898888 6.300684197942321 90.51272702230123 -3.8638751793083266 1.3565503314170966 38.37926417198051 -19.837094134675016 -2.4978043246733987 -8.079250339839334 -14.444996102760056 11.315280215054429 0.4028913963284647 -31.7961845157415 13.047205579724158 -7.857380180728616 7.397291518920992 -9.7745975270077 2.7827043801755003 -11.559498824231035 32.72155801316692 -1.6949978745535916 -6.635261721644511 -22.552039098048613 3.119363139709714 0.000010799624975418732 -0.6048059665862068 -1.39494320120958e-7 -6.269546401570207 -28.388958850044993 -8.648277086432078 -10.939910193141028 19.717782659408943 -3.0040474192009574 -6.396981459817676 20.350177865383973 7.898447243601077 -0.000005080307892359183 1.3495308884776165 9.662695714929435e-7
0.6468936800956726 -0.4242736511700933 1.5403109788894653 27.296041777643154 -0.636860699232846 -4.295100007056575 1.707698470820301 6.062262920919532 1.0491728361828963 1.8029668676615107 6.451130196202019 0.928906691033929 0 0 0 -6.519871855624286 2.8518727935400334 0.19598452862692725 -35.969009374415684 -5.911841194907568 13.763164072126537 0 0 0 0 0 0 1.577016173059269 0.3681388703442649 -3.233441750478138 2.076395348323104 -2.797487713402418 -67.85538898039005 -24.654805773339437 -3.075361928377192 0.9954045560200218 4.501171782286373 27.31056286369341 0.6392894973298889 5.7315535308143195 2.02039419557619 -16.147955963134194 1.8062021235944001 0.2704759087529289 -17.033796305336637 0.844542703410071 0.05811414090887355 -7.873670846770673 6.705053138781902 5.040689097362572 -60.98301757471442 -1.2944176099776972 0.6637811161667083 -27.161729599006996 1.269511693062542 0.13210510030138625 -11.882857469161745 4.595421952614461 2.072527917885345 -34.1302903067522 1.5690244460553928 0.20298346815520144 -14.742811131018584 1.0687588711216611 0.09332888667892059 -9.98295215339918 4.737849356674008 2.288723489696664 -40.29121100443225 2.097772858036781 0.3678138960480407 -19.889374212683332 1.5299173274955944 0.19281739129214368 -14.367362065691047 7.37456690989123 -3.353759491631616 11.470189381527907 28.504137636884014 14.25590031317426 0.7043080465863649 9.91486921832047 4.221978510926389 -1.1930062978287452 20.20355201740191 2.0057830873052556 -1.4092580272582678 -0.3866947464128493 2.0493517545795443 66.77134563150675 36.14944232907378 -4.2973615191480565 -1.8851564265707064 47.29076745724648 39.52717695883793 24.744147264896988 3.6745651911006743 0.4808459994380887 -14.822603905225655 -0.9135255887719501 0.06732613062752213 8.428082053011371 -0.5400339717203438 0.02341688066953335 4.9705906079702 -6.0402342122288095 3.9453632010152577 78.40337045857976 -6.19857628326965 5.488056703018139 83.02970456857474 -4.135355949310674 1.5683310737114917 41.52411656297671 -6.030661628665656 4.803460958630397 65.73408788678724 -6.238477404199662 5.962844748936831 87.4067701697474 -3.3111423943906657 0.9639445003768099 32.142209119162935 -6.208390129162966 6.146888598464093 85.92058681100792 -6.244723905466891 6.291899237573953 90.43183484514954 -3.8597878764901066 1.3527311882911879 38.32755148709148 -19.719704543137833 -2.6025769101347196 -8.119505021154152 -14.653142591366093 11.421961519777604 0.36735004695161155 -31.572701342371218 12.950402618253165 -7.7433746074304395 7.584830357420627 -9.749745465908122 2.9275387191290716 -11.511182876219932 32.18223444238944 -1.6022740196107115 -6.18353769358284 -22.048043019237426 3.0643955104487963 -6.575615617450524e-9 -0.5930178034298901 -0.000002561244448677112 -6.497143309640799 -27.959042334772345 -7.550981132660174 -11.005071821532026 21.11525340274059 -2.878307968573996 -8.880733343719914 18.05242023695339 6.3164563826428 -0.0000012478178494571202 1.0658241229069294 2.7923030679850526e-7
0.6476017832756042 -0.40557114415105033 1.4966487884521484 26.519022858496875 -0.5731056502983551 -4.733429526154372 1.5900286096574776 5.90260297281927 0.9205997533192067 1.6756068535283934 6.28191320924589 0.7928754270882549 0 0 0 -6.775803816015001 2.606443162522061 0.05507107575813438 -37.23332818913684 -5.7742909325019065 13.613678607742177 0 0 0 0 0 0 1.4645690506275102 0.3708453090389559 -3.182473698407267 1.991489840665151 -2.477807387227254 -67.37729892251343 -25.027929218508618 -3.1177834213930393 1.0203517167228906 4.712042914478619 27.289490834527268 0.6959877500544385 5.7326347343819615 2.0208311725054746 -16.14738593913755 1.803119122063167 0.2695413097171832 -17.00384591828915 0.8445400890110005 0.05811283356730526 -7.873630629856515 6.704787748961848 5.038764936775104 -60.96367789286624 -1.295356252624305 0.6632952863831297 -27.15202559615144 1.2700273674274294 0.13221833233245522 -11.887689826844088 4.605236587187709 2.0809869002669696 -34.11161189783469 1.5690666922706222 0.20298520239380366 -14.743202149941403 1.0693536128943295 0.09343391431711467 -9.988566805003492 4.745889289926542 2.2974150350564124 -40.26476174091945 2.097188079532026 0.36760709180378903 -19.88357994559242 1.529891189849706 0.19282073970462363 -14.367159126853075 7.3846753302013495 -3.3450923306991927 11.506217550194693 28.51464179056018 14.26064136944018 0.7055562265714278 9.876070167679167 4.207630460564488 -1.1889195135028656 19.561947419626318 1.956674337446891 -1.4500878047553025 -0.08633326528222036 1.9988043493703358 67.37688347967803 32.70601162336314 -3.9507325188509976 -1.5932452088652214 45.418628648487775 39.44659300301225 23.42791316100963 3.6633030054622835 0.49258207527573755 -15.085363463920697 -0.9136165041685134 0.06731662571903985 8.429094738795563 -0.5400458173047342 0.023451416816928885 4.970605363439073 -6.04320702367369 3.8475507662743484 78.70211678811744 -6.196546677244732 5.4718711669913995 82.87999085594387 -4.116493151066323 1.5517057806714012 41.29358401085562 -6.031280595023632 4.80006982059477 65.48286398094217 -6.23822970831909 5.957453051073192 87.35740282736985 -3.30804250624696 0.9622265718336188 32.10985289757053 -6.209451112337565 6.094399055626043 85.68671928750452 -6.244793500255853 6.283266886353909 90.35276684649945 -3.849583456699445 1.3434676347704686 38.199648009618905 -19.639448339501183 -2.674878773125425 -8.151332701709647 -14.842787744861406 11.519055551842067 0.33451969878901683 -31.416571550926868 12.882393093659001 -7.664153022879067 7.826004509474425 -9.883058933659516 3.173492950543058 -11.475967726188328 31.781288013492585 -1.5505479363772143 -5.664069980679585 -21.640129222531158 2.9746768346309236 0.0000048448554951636375 -0.5634006481049438 -9.163586394826434e-7 -6.56658779878371 -27.529585489271756 -6.296063322291416 -11.069507560456817 22.366087542736274 -2.8475378302915777 -11.8500216135135 16.028120145514183 4.803677420312377 0.000003350372587503731 0.9585601661846586 -0.0000011498854422354164
